<svg width="42" height="41" viewBox="0 0 42 41" fill="none" xmlns="http://www.w3.org/2000/svg">
<rect width="42" height="40.0599" rx="20.0299" fill="white" fill-opacity="0.1"/>
<path d="M28.958 20.5208C28.958 20.0208 28.8955 19.6458 28.833 19.2395H21.458V21.8958H25.833C25.6768 23.052 24.5205 25.2395 21.458 25.2395C18.8018 25.2395 16.6455 23.052 16.6455 20.3333C16.6455 15.9895 21.7705 13.9895 24.5205 16.6458L26.6455 14.6145C25.3018 13.3645 23.5205 12.5833 21.458 12.5833C17.1455 12.5833 13.708 16.052 13.708 20.3333C13.708 24.6458 17.1455 28.0833 21.458 28.0833C25.9268 28.0833 28.958 24.9583 28.958 20.5208Z" fill="black"/>
</svg>
