<svg width="40" height="41" viewBox="0 0 40 41" fill="none" xmlns="http://www.w3.org/2000/svg">
<rect width="40" height="40.0599" rx="20" fill="white" fill-opacity="0.1"/>
<path d="M26.333 13.3333H14.3018C13.7705 13.3333 13.333 13.802 13.333 14.3645V26.3333C13.333 26.8958 13.7705 27.3333 14.3018 27.3333H26.333C26.8643 27.3333 27.333 26.8958 27.333 26.3333V14.3645C27.333 13.802 26.8643 13.3333 26.333 13.3333ZM17.5518 25.3333H15.4893V18.677H17.5518V25.3333ZM16.5205 17.7395C15.833 17.7395 15.3018 17.2083 15.3018 16.552C15.3018 15.8958 15.833 15.3333 16.5205 15.3333C17.1768 15.3333 17.708 15.8958 17.708 16.552C17.708 17.2083 17.1768 17.7395 16.5205 17.7395ZM25.333 25.3333H23.2393V22.0833C23.2393 21.3333 23.2393 20.3333 22.1768 20.3333C21.083 20.3333 20.9268 21.177 20.9268 22.052V25.3333H18.8643V18.677H20.833V19.5833H20.8643C21.1455 19.052 21.833 18.4895 22.833 18.4895C24.9268 18.4895 25.333 19.8958 25.333 21.677V25.3333Z" fill="black"/>
</svg>
