<svg width="40" height="41" viewBox="0 0 40 41" fill="none" xmlns="http://www.w3.org/2000/svg">
<rect width="40" height="40.0599" rx="20" fill="white" fill-opacity="0.1"/>
<path d="M20.333 16.7395C18.333 16.7395 16.7393 18.3645 16.7393 20.3333C16.7393 22.3333 18.333 23.927 20.333 23.927C22.3018 23.927 23.9268 22.3333 23.9268 20.3333C23.9268 18.3645 22.3018 16.7395 20.333 16.7395ZM20.333 22.677C19.0518 22.677 17.9893 21.6458 17.9893 20.3333C17.9893 19.052 19.0205 18.0208 20.333 18.0208C21.6143 18.0208 22.6455 19.052 22.6455 20.3333C22.6455 21.6458 21.6143 22.677 20.333 22.677ZM24.8955 16.6145C24.8955 16.1458 24.5205 15.7708 24.0518 15.7708C23.583 15.7708 23.208 16.1458 23.208 16.6145C23.208 17.0833 23.583 17.4583 24.0518 17.4583C24.5205 17.4583 24.8955 17.0833 24.8955 16.6145ZM27.2705 17.4583C27.208 16.3333 26.958 15.3333 26.1455 14.5208C25.333 13.7083 24.333 13.4583 23.208 13.3958C22.0518 13.3333 18.583 13.3333 17.4268 13.3958C16.3018 13.4583 15.333 13.7083 14.4893 14.5208C13.6768 15.3333 13.4268 16.3333 13.3643 17.4583C13.3018 18.6145 13.3018 22.0833 13.3643 23.2395C13.4268 24.3645 13.6768 25.3333 14.4893 26.177C15.333 26.9895 16.3018 27.2395 17.4268 27.302C18.583 27.3645 22.0518 27.3645 23.208 27.302C24.333 27.2395 25.333 26.9895 26.1455 26.177C26.958 25.3333 27.208 24.3645 27.2705 23.2395C27.333 22.0833 27.333 18.6145 27.2705 17.4583ZM25.7705 24.4583C25.5518 25.0833 25.0518 25.552 24.458 25.802C23.5205 26.177 21.333 26.0833 20.333 26.0833C19.3018 26.0833 17.1143 26.177 16.208 25.802C15.583 25.552 15.1143 25.0833 14.8643 24.4583C14.4893 23.552 14.583 21.3645 14.583 20.3333C14.583 19.3333 14.4893 17.1458 14.8643 16.2083C15.1143 15.6145 15.583 15.1458 16.208 14.8958C17.1143 14.5208 19.3018 14.6145 20.333 14.6145C21.333 14.6145 23.5205 14.5208 24.458 14.8958C25.0518 15.1145 25.5205 15.6145 25.7705 16.2083C26.1455 17.1458 26.0518 19.3333 26.0518 20.3333C26.0518 21.3645 26.1455 23.552 25.7705 24.4583Z" fill="black"/>
</svg>
