<svg width="1148" height="378" viewBox="0 0 1148 378" fill="none" xmlns="http://www.w3.org/2000/svg">
<mask id="mask0_1_6841" style="mask-type:alpha" maskUnits="userSpaceOnUse" x="4" y="0" width="1140" height="370">
<rect x="4.5" y="0.5" width="1139" height="369" rx="39.5" fill="#2463F5" stroke="black"/>
</mask>
<g mask="url(#mask0_1_6841)">
<path d="M883.868 47.3688C900.292 62.4091 923.687 59.1083 940.404 41.508C957.121 23.9077 953.769 -3.62966 934.382 -15.0108C914.996 -26.392 893.619 -25.9874 877.846 -9.15009C862.074 7.6872 867.445 32.3284 883.868 47.3688Z" fill="#4074EC"/>
<path d="M874.557 66.6853C870.848 72.987 873.505 80.276 880.299 84.4435C887.094 88.6111 895.709 85.6545 898.041 78.651C900.373 71.6474 898.784 64.8091 892.299 60.8928C885.815 56.9765 878.267 60.3837 874.557 66.6853Z" fill="#4074EC"/>
<path d="M264.132 322.152C247.708 307.111 224.313 310.412 207.596 328.013C190.879 345.613 194.231 373.15 213.618 384.531C233.004 395.912 254.381 395.508 270.154 378.671C285.926 361.833 280.555 337.192 264.132 322.152Z" fill="#4074EC"/>
<path d="M273.443 302.835C277.152 296.533 274.495 289.245 267.701 285.077C260.906 280.909 252.291 283.866 249.959 290.87C247.627 297.873 249.216 304.711 255.701 308.628C262.185 312.544 269.733 309.137 273.443 302.835Z" fill="#4074EC"/>
<path opacity="0.75" d="M-22.0824 41.829C5.20422 50.7818 20.9176 64.7143 22.5403 86.4881C24.3583 110.853 20.2477 128.952 38.3779 147.168C61.1506 170.043 105.263 168.172 135.516 135.054C150.452 118.706 165.664 91.556 157.533 59.744C151.562 36.3826 127.617 18.4485 102.699 16.603C84.3302 15.244 61.6617 11.9846 47.2387 -8.33779C32.8157 -28.6602 9.35418 -40.2565 -15.2828 -30.0485C-42.5472 -18.7522 -54.1815 31.3007 -22.0824 41.829Z" fill="#4A7AE9"/>
<path opacity="0.75" d="M1174.81 314.963C1146.26 311.796 1128.03 301.382 1121.98 280.403C1115.2 256.929 1115.51 238.371 1094.03 224.26C1067.05 206.541 1024.26 217.418 1001.44 256.035C990.175 275.099 980.854 304.791 995.336 334.26C1005.97 355.9 1033.08 368.543 1057.85 365.24C1076.11 362.804 1098.96 361.346 1117.25 378.279C1135.53 395.212 1160.87 401.751 1182.89 386.708C1207.26 370.061 1208.38 318.686 1174.81 314.963Z" fill="#4A7AE9"/>
</g>
</svg>
