<svg width="42" height="41" viewBox="0 0 42 41" fill="none" xmlns="http://www.w3.org/2000/svg">
<rect width="42" height="40.0599" rx="20.0299" fill="white" fill-opacity="0.1"/>
<path d="M27.6768 17.0833C28.3018 16.6145 28.8643 16.052 29.3018 15.3958C28.7393 15.6458 28.083 15.8333 27.4268 15.8958C28.1143 15.4895 28.6143 14.8645 28.8643 14.0833C28.2393 14.4583 27.5205 14.7395 26.8018 14.8958C26.1768 14.2395 25.333 13.8645 24.3955 13.8645C22.583 13.8645 21.1143 15.3333 21.1143 17.1458C21.1143 17.3958 21.1455 17.6458 21.208 17.8958C18.4893 17.7395 16.0518 16.427 14.4268 14.4583C14.1455 14.927 13.9893 15.4895 13.9893 16.1145C13.9893 17.2395 14.5518 18.2395 15.458 18.8333C14.9268 18.802 14.3955 18.677 13.958 18.427V18.4583C13.958 20.052 15.083 21.3645 16.583 21.677C16.333 21.7395 16.0205 21.802 15.7393 21.802C15.5205 21.802 15.333 21.7708 15.1143 21.7395C15.5205 23.052 16.7393 23.9895 18.1768 24.0208C17.0518 24.8958 15.6455 25.427 14.1143 25.427C13.833 25.427 13.583 25.3958 13.333 25.3645C14.7705 26.302 16.4893 26.8333 18.3643 26.8333C24.3955 26.8333 27.6768 21.8645 27.6768 17.5208C27.6768 17.3645 27.6768 17.2395 27.6768 17.0833Z" fill="black"/>
</svg>
